<svg xmlns="http://www.w3.org/2000/svg" width="160.668" height="44.486" viewBox="0 0 160.668 44.486"><defs><style>.a{fill:#0a0908;}</style></defs><g transform="translate(0 -0.019)"><g transform="translate(0 0.019)"><path class="a" d="M0,52.048V10.54H16.619a19.008,19.008,0,0,1,7.646,1.349A9.691,9.691,0,0,1,30.4,21.181a8.953,8.953,0,0,1-.974,4.273,8.291,8.291,0,0,1-2.667,2.993A10.938,10.938,0,0,1,22.9,30.1v.4a9.35,9.35,0,0,1,4.45,1.349,9.528,9.528,0,0,1,3.373,3.454,10.281,10.281,0,0,1,1.3,5.28,10.794,10.794,0,0,1-1.633,5.887,11.039,11.039,0,0,1-4.812,4.084,18.432,18.432,0,0,1-7.844,1.5ZM8.77,27.91h6.522a7.68,7.68,0,0,0,3.211-.639,5.327,5.327,0,0,0,2.229-1.813,4.788,4.788,0,0,0,.812-2.818,4.568,4.568,0,0,0-1.59-3.627,6.655,6.655,0,0,0-4.5-1.379H8.77Zm0,16.965h7.16q3.666,0,5.35-1.408a4.645,4.645,0,0,0,1.682-3.76,5.579,5.579,0,0,0-.83-3.04A5.681,5.681,0,0,0,19.771,34.6a8.2,8.2,0,0,0-3.639-.749H8.77Z" transform="translate(0 -8.174)"/><path class="a" d="M157.57,8.749a4.662,4.662,0,0,1-3.283-1.275,4.068,4.068,0,0,1-1.367-3.081A4.082,4.082,0,0,1,154.286,1.3a4.86,4.86,0,0,1,6.578,0,4.063,4.063,0,0,1,1.367,3.081,4.093,4.093,0,0,1-1.367,3.09A4.633,4.633,0,0,1,157.57,8.749Zm-4.338,35.144V12.763h8.635v31.13Z" transform="translate(-118.531 -0.019)"/><path class="a" d="M209.94,87.82V82.673L225.18,63.8v-.225H210.466V56.69h25.11v5.622l-14.307,18.4v.225h14.842v6.89Z" transform="translate(-162.729 -43.946)"/><path class="a" d="M351.7,68.459v17.99H343.07V55.326H351.3v5.492h.364a8.748,8.748,0,0,1,3.465-4.3,10.541,10.541,0,0,1,5.9-1.59,10.96,10.96,0,0,1,5.656,1.419,9.654,9.654,0,0,1,3.749,4.048,13.422,13.422,0,0,1,1.338,6.252V86.469h-8.635V68.175a6.3,6.3,0,0,0-1.457-4.468,5.251,5.251,0,0,0-4.075-1.612,6.112,6.112,0,0,0-3.079.751,5.156,5.156,0,0,0-2.069,2.179A7.559,7.559,0,0,0,351.7,68.459Z" transform="translate(-265.921 -42.582)"/><path class="a" d="M491.411,8.75a4.662,4.662,0,0,1-3.294-1.275,4.059,4.059,0,0,1-1.367-3.081A4.081,4.081,0,0,1,488.128,1.3a4.857,4.857,0,0,1,6.575,0,4.048,4.048,0,0,1,1.37,3.081,4.089,4.089,0,0,1-1.37,3.09A4.628,4.628,0,0,1,491.411,8.75Zm-4.338,35.144V12.764h8.633v31.13Z" transform="translate(-377.289 -0.02)"/><path class="a" d="M565.68,64.181l-7.9.486a4.152,4.152,0,0,0-.87-1.835,4.8,4.8,0,0,0-1.754-1.318,6.166,6.166,0,0,0-2.584-.495,6.326,6.326,0,0,0-3.373.841,2.573,2.573,0,0,0-1.378,2.249,2.4,2.4,0,0,0,.9,1.887,7.142,7.142,0,0,0,3.061,1.235l5.633,1.124a14.113,14.113,0,0,1,6.762,3,6.963,6.963,0,0,1,2.229,5.431,8.507,8.507,0,0,1-1.8,5.372,11.776,11.776,0,0,1-4.9,3.6,18.576,18.576,0,0,1-7.165,1.289q-6.18,0-9.839-2.584a9.989,9.989,0,0,1-4.293-7.05l8.494-.45a4.327,4.327,0,0,0,1.864,2.867,7.911,7.911,0,0,0,7.448.1,2.676,2.676,0,0,0,1.408-2.28,2.417,2.417,0,0,0-.992-1.936,7.276,7.276,0,0,0-3-1.165l-5.4-1.075a12.729,12.729,0,0,1-6.78-3.162,7.807,7.807,0,0,1-2.213-5.719,8.372,8.372,0,0,1,1.63-5.172,10.322,10.322,0,0,1,4.6-3.346,18.9,18.9,0,0,1,6.971-1.174q5.89,0,9.285,2.5A9.639,9.639,0,0,1,565.68,64.181Z" transform="translate(-417.325 -42.558)"/><path class="a" d="M677.656,8.75a4.662,4.662,0,0,1-3.294-1.275A4.068,4.068,0,0,1,673,4.394,4.081,4.081,0,0,1,674.378,1.3a4.857,4.857,0,0,1,6.575,0,4.048,4.048,0,0,1,1.37,3.081,4.088,4.088,0,0,1-1.37,3.09,4.624,4.624,0,0,1-3.3,1.277Zm-4.338,35.144V12.764h8.635v31.13Z" transform="translate(-521.655 -0.02)"/></g></g></svg>